<svg xmlns="http://www.w3.org/2000/svg" viewBox="0 0 100 100"><path d="M96.8 47.9c-.9-1.1-21.1-26.2-46.8-26.2-6.4 0-12.5 1.6-18 4L17.3 11c-1.7-1.7-4.6-1.7-6.3 0s-1.7 4.6 0 6.3L23.7 30c-12 7.4-19.9 17.3-20.4 17.9-1 1.2-1 2.9 0 4.2.8 1.1 21 26.2 46.7 26.2 6.4 0 12.5-1.6 18-4L82.7 89c.9.9 2 1.3 3.2 1.3 1.1 0 2.3-.4 3.2-1.3 1.7-1.7 1.7-4.6 0-6.3L76.3 70c12-7.4 19.9-17.3 20.4-17.9 1-1.2 1-3 .1-4.2zM50 70c-11.1 0-20-9-20-20 0-3.9 1.1-7.5 3.1-10.6l4.7 4.7c-.9 1.8-1.4 3.8-1.4 5.9 0 7.5 6.1 13.6 13.6 13.6 2.1 0 4.1-.5 5.9-1.4l4.7 4.7c-3.1 2-6.7 3.1-10.6 3.1zm12.2-14.1c.9-1.8 1.4-3.8 1.4-5.9 0-7.5-6.1-13.6-13.6-13.6-2.1 0-4.1.5-5.9 1.4l-4.7-4.7c3.1-2 6.7-3.1 10.6-3.1 11.1 0 20 9 20 20 0 3.9-1.1 7.5-3.1 10.6l-4.7-4.7z"/></svg>